<svg xmlns="http://www.w3.org/2000/svg" enable-background="new 0 0 64 64" viewBox="0 0 64 64"><path fill="#f2f2f2" d="M61,63.58H3c-1.66,0-3-1.34-3-3V3.42c0-1.66,1.34-3,3-3h58c1.66,0,3,1.34,3,3v57.16
		C64,62.24,62.66,63.58,61,63.58z"/><path fill="#40596b" d="M64,14.78H0V3.42c0-1.66,1.34-3,3-3h58c1.66,0,3,1.34,3,3V14.78z"/><rect width="47.26" height="31.88" x="8.37" y="23.24" fill="#fff"/><path fill="#4cdbc4" d="M12.22,7.6c0,1.33-1.08,2.41-2.41,2.41c-1.33,0-2.41-1.08-2.41-2.41c0-1.33,1.08-2.41,2.41-2.41
		C11.14,5.19,12.22,6.27,12.22,7.6z"/><path fill="#ff7058" d="M19.93,7.6c0,1.33-1.08,2.41-2.41,2.41c-1.33,0-2.41-1.08-2.41-2.41c0-1.33,1.08-2.41,2.41-2.41
		C18.85,5.19,19.93,6.27,19.93,7.6z"/><path fill="#ffd15c" d="M27.64,7.6c0,1.33-1.08,2.41-2.41,2.41c-1.33,0-2.41-1.08-2.41-2.41c0-1.33,1.08-2.41,2.41-2.41
		C26.56,5.19,27.64,6.27,27.64,7.6z"/><path fill="#acb3ba" d="M55.03,9.41H36.33c-0.99,0-1.78-0.8-1.78-1.78V7.58c0-0.99,0.8-1.78,1.78-1.78h18.69
		c0.99,0,1.78,0.8,1.78,1.78v0.04C56.81,8.61,56.01,9.41,55.03,9.41z"/><path fill="#84dbff" d="M46.97,36.78H17.03c-0.85,0-1.53-0.69-1.53-1.53v-5.07c0-0.85,0.69-1.53,1.53-1.53h29.93
				c0.85,0,1.53,0.69,1.53,1.53v5.07C48.5,36.09,47.81,36.78,46.97,36.78z"/><path fill="#54c0eb" d="M21.19,28.63v8.15h-4.15c-0.85,0-1.53-0.69-1.53-1.53v-5.08c0-0.84,0.69-1.53,1.53-1.53H21.19z"/><path fill="#84dbff" d="M46.97,49.72H17.03c-0.85,0-1.53-0.69-1.53-1.53v-5.07c0-0.85,0.69-1.53,1.53-1.53h29.93
				c0.85,0,1.53,0.69,1.53,1.53v5.07C48.5,49.04,47.81,49.72,46.97,49.72z"/><polygon fill="#fff" points="21.09 47.55 20.05 46.76 19.54 47.96 19.25 46.68 18.09 47.27 18.69 46.11 17.42 45.8 18.63 45.31 17.85 44.26 19.09 44.65 19.17 43.35 19.87 44.45 20.77 43.5 20.6 44.8 21.9 44.64 20.93 45.53 22.02 46.25 20.72 46.3"/><polygon fill="#fff" points="27.23 47.55 26.19 46.76 25.68 47.96 25.39 46.68 24.23 47.27 24.83 46.11 23.56 45.8 24.77 45.31 23.99 44.26 25.23 44.65 25.31 43.35 26.01 44.45 26.91 43.5 26.74 44.8 28.04 44.64 27.07 45.53 28.16 46.25 26.86 46.3"/><polygon fill="#fff" points="33.37 47.55 32.33 46.76 31.82 47.96 31.53 46.68 30.36 47.27 30.97 46.11 29.7 45.8 30.91 45.31 30.13 44.26 31.37 44.65 31.45 43.35 32.15 44.45 33.05 43.5 32.88 44.8 34.18 44.64 33.21 45.53 34.3 46.25 33 46.3"/><polygon fill="#fff" points="39.51 47.55 38.47 46.76 37.95 47.96 37.67 46.68 36.5 47.27 37.11 46.11 35.84 45.8 37.05 45.31 36.27 44.26 37.51 44.65 37.59 43.35 38.29 44.45 39.19 43.5 39.02 44.8 40.32 44.64 39.35 45.53 40.44 46.25 39.13 46.3"/><polygon fill="#fff" points="45.65 47.55 44.61 46.76 44.09 47.96 43.81 46.68 42.64 47.27 43.25 46.11 41.98 45.8 43.19 45.31 42.41 44.26 43.65 44.65 43.73 43.35 44.43 44.45 45.33 43.5 45.16 44.8 46.45 44.64 45.49 45.53 46.58 46.25 45.27 46.3"/></svg>