<svg xmlns="http://www.w3.org/2000/svg" viewBox="0 0 32 32"><g data-name="Layer 2"><path fill="#fcae18" d="M27.1,11.13h-7V23.49a7.1,7.1,0,0,1-5.39,6.88,6.77,6.77,0,0,1-1.7.21A7.09,7.09,0,1,1,13,16.4a6.77,6.77,0,0,1,1.7.21,7,7,0,0,1,3.39,2V2.14Z"/><path fill="#f94819" d="M27.1,11.13h-7V23.49a7.1,7.1,0,0,1-5.39,6.88V16.61a7,7,0,0,1,3.39,2V2.14Z"/><path d="M17.08,1.42V17.84A7.08,7.08,0,0,0,4.9,22.77c0,.16,0,.31,0,.46h2c0-.15,0-.3,0-.46a5.16,5.16,0,1,1,.59,2.34H5.3a7.09,7.09,0,0,0,13.78-2.34V10.4h7Zm2,4.83L21.24,8.4H19.08Z"/></g></svg>