<svg xmlns="http://www.w3.org/2000/svg" width="36" height="36"><g color="#000" font-family="sans-serif" font-weight="400"><path style="line-height:normal;text-indent:0;text-align:start;text-decoration-line:none;text-decoration-style:solid;text-decoration-color:#000;text-transform:none;block-progression:tb;isolation:auto;mix-blend-mode:normal" fill="#2b4255" d="M17.502 1016.12c-5.583 0-9.254 2.364-11.473 5.12-2.218 2.757-3.027 5.838-3.027 7.528v10.63h1.002v-10.63c0-1.348.748-4.34 2.807-6.899 2.058-2.558 5.387-4.748 10.691-4.748 5.304 0 8.632 2.19 10.691 4.748 2.06 2.559 2.805 5.551 2.805 6.899v10.63H32v-10.63c0-1.69-.81-4.771-3.027-7.528-2.219-2.756-5.888-5.12-11.471-5.12z" overflow="visible" transform="translate(0 -1016.362)"/><path style="line-height:normal;text-indent:0;text-align:start;text-decoration-line:none;text-decoration-style:solid;text-decoration-color:#000;text-transform:none;block-progression:tb;isolation:auto;mix-blend-mode:normal" fill="#2b4255" d="M3.5 1036.361a.5.5 0 0 0-.5.502v4.053a.5.5 0 0 0 .5.502h2a.5.5 0 0 0 .5-.502v-4.053a.5.5 0 0 0-.5-.502h-2zm.502 1.002h.996v3.053h-.996v-3.053zm25.498-1.002a.5.5 0 0 0-.5.502v3.998a.5.5 0 0 0 .5.5h2a.5.5 0 0 0 .5-.5v-3.998a.5.5 0 0 0-.5-.502h-2zm.502 1.002h.996v2.998h-.996v-2.998z" overflow="visible" transform="translate(0 -1016.362)"/><path style="line-height:normal;text-indent:0;text-align:start;text-decoration-line:none;text-decoration-style:solid;text-decoration-color:#000;text-transform:none;block-progression:tb;isolation:auto;mix-blend-mode:normal" fill="#2b4255" d="M30.994 1040.408a.5.5 0 0 0-.494.508v5.047c0 .806-.434 1.67-1.113 2.322-.68.653-1.583 1.074-2.422 1.074h-6.479a.501.501 0 1 0 0 1.002h6.479c1.162 0 2.278-.547 3.117-1.353.839-.807 1.42-1.892 1.42-3.045v-5.047a.5.5 0 0 0-.508-.508z" overflow="visible" transform="translate(0 -1016.362)"/><path style="line-height:normal;text-indent:0;text-align:start;text-decoration-line:none;text-decoration-style:solid;text-decoration-color:#000;text-transform:none;block-progression:tb;isolation:auto;mix-blend-mode:normal" fill="#f05542" d="M15.492 1048.367a.5.5 0 0 0-.5.5v2.994a.5.5 0 0 0 .5.5H20.5a.5.5 0 0 0 .5-.5v-2.994a.5.5 0 0 0-.5-.5h-5.008zm.5 1.002h4.006v1.992h-4.006v-1.992zm-8.855-17.008c-1.162 0-2.137.913-2.137 2.057v8.889c0 1.144.975 2.054 2.137 2.054h1.726c1.162 0 2.137-.91 2.137-2.054v-2.612a.501.501 0 1 0-1.002 0v2.612c0 .578-.484 1.054-1.135 1.054H7.137c-.65 0-1.135-.476-1.135-1.054v-8.889c0-.579.484-1.055 1.135-1.055h1.726c.651 0 1.135.476 1.135 1.055v1.25a.501.501 0 0 0 1.002 0v-1.25c0-1.144-.975-2.057-2.137-2.057H7.137zm3.355 4.803a.5.5 0 0 0-.494.508v1.01a.501.501 0 0 0 1.002 0v-1.01a.5.5 0 0 0-.508-.508zm15.639-4.791c-1.161 0-2.14.902-2.14 2.043v2.707a.501.501 0 0 0 1.001 0v-2.707c0-.57.484-1.043 1.139-1.043h1.728c.655 0 1.139.473 1.139 1.043v8.824c0 .57-.484 1.043-1.139 1.043h-1.728c-.655 0-1.139-.473-1.139-1.043v-1.125a.501.501 0 1 0-1.002 0v1.125c0 1.14.98 2.045 2.14 2.045h1.73c1.16 0 2.14-.904 2.14-2.045v-8.824c0-1.14-.98-2.043-2.14-2.043h-1.73zm-1.647 6.232a.5.5 0 0 0-.494.508v1.002a.501.501 0 0 0 1.002 0v-1.002a.5.5 0 0 0-.508-.507z" overflow="visible" transform="translate(0 -1016.362)"/></g></svg>